<?xml version="1.0" encoding="utf-8" ?>	<!-- Generator: Assembly 2.4 - http://assemblyapp.co -->	<svg version="1.1" xmlns="http://www.w3.org/2000/svg" xmlns:xlink="http://www.w3.org/1999/xlink" width="4096.00" height="4096.00" viewBox="0 0 4096.0 4096.0">		<rect x="0" y="0" width="4096.00" height="4096.00" fill="#1e90ff" />		<g id="document" transform="scale(13.653333333333334 13.653333333333334) translate(150.0 150.0)">			<path d="M-16.2249,8.0443 C-11.5077,27.0706 5.31718,41.694 24.9724,42.7947 C51.389,44.6816 73.5601,23.454 73.5601,-3.11986 C73.5601,-4.69228 73.4029,-6.57918 73.0884,-8.46608 C72.4594,-12.7116 70.887,-17.2716 68.8429,-21.0454 L28.1172,-93.5339 L-12.9229,-20.5737 C-15.7532,-15.8564 -17.1684,-10.5102 -17.4829,-5.00676 C-17.7974,-0.918476 -17.3256,3.79878 -16.2249,8.0443 Z " fill="#f0f8ff" fill-opacity="1.00" />			<path d="M28.0147,-40.0458 L60.1983,-124.091 C27.7607,-113.033 15.5614,-140.166 -4.62279,-116.025 L28.0147,-40.0458 Z " fill="#f0f8ff" fill-opacity="1.00" />			<path d="M46.8372,-74.0179 L46.8372,-66.6253 L9.87382,-66.6253 L9.87382,-74.0179 L46.8372,-74.0179 Z " fill="#705845" fill-opacity="1.00" />			<path d="M13.7628,16.4583 C15.2613,15.5544 16.4863,14.9122 17.4378,14.5316 C19.0552,13.9132 20.7678,13.604 22.5755,13.604 C24.526,13.604 27.1841,14.151 30.5498,15.2452 C33.9155,16.3394 36.3119,16.8864 37.7391,16.8864 C39.6895,16.8864 41.533,16.4702 43.2693,15.6377 C44.3159,15.1144 45.5052,14.3176 46.8372,13.2472 L43.8759,8.43052 C42.7104,9.26303 41.8422,9.81011 41.2713,10.0718 C40.3437,10.4999 39.3209,10.714 38.2029,10.714 C37.3228,10.714 35.4735,10.2918 32.6548,9.44737 C29.8362,8.60297 27.5706,8.18077 25.858,8.18077 C24.3357,8.18077 22.7777,8.42457 21.1841,8.91219 C19.5904,9.3998 17.9729,10.0599 16.3317,10.8924 C19.3763,8.60891 21.6122,6.30762 23.0394,3.98849 C24.4665,1.66935 25.1801,-0.679511 25.1801,-3.05811 C25.1801,-3.72412 25.1266,-4.36634 25.0195,-4.98477 C24.9125,-5.60321 24.7401,-6.45951 24.5022,-7.55366 L34.5993,-7.55366 L34.5993,-11.2643 L22.8966,-11.2643 C21.1603,-14.6181 20.0245,-16.9491 19.4893,-18.2574 C18.9541,-19.5656 18.6865,-20.8381 18.6865,-22.075 C18.6865,-24.5725 19.5428,-26.6954 21.2554,-28.4437 C22.968,-30.192 25.4893,-31.0661 28.8194,-31.0661 C32.2445,-31.0661 34.7956,-30.1325 36.4725,-28.2653 C38.1494,-26.3981 38.9879,-23.6687 38.9879,-20.077 L45.5885,-20.077 C45.5171,-25.3813 44.1197,-29.4843 41.3962,-32.3862 C38.6727,-35.2881 34.6588,-36.7391 29.3545,-36.7391 C23.7173,-36.7391 19.3882,-35.2703 16.3674,-32.3327 C13.3466,-29.3951 11.8362,-26.071 11.8362,-22.3604 C11.8362,-21.3139 11.9194,-20.3327 12.0859,-19.4169 C12.2524,-18.5012 12.4546,-17.6984 12.6925,-17.0086 C12.9541,-16.2712 13.4833,-15.0998 14.2802,-13.4942 C15.077,-11.8887 15.4754,-11.1453 15.4754,-11.2643 L9.87382,-11.2643 L9.87382,-7.55366 L17.7589,-7.55366 C18.2108,-6.43572 18.5319,-5.55564 18.7222,-4.91342 C19.0314,-3.89062 19.186,-2.99864 19.186,-2.23749 C19.186,0.426537 18.3654,2.89433 16.7242,5.16589 C15.0829,7.43745 12.9184,9.51278 10.2306,11.3919 L13.7628,16.4583 Z " fill="#1e90ff" fill-opacity="1.00" />			<g>				<path d="M-56.2608,62.3226 L-102.589,62.3226 C-121.824,62.3226 -131.489,75.9346 -131.489,92.8466 C-131.489,109.759 -121.824,123.371 -102.589,123.371 L-56.2608,123.371 C-37.0257,123.371 -21.5438,109.759 -21.5438,92.8466 C-21.5438,76.0378 -37.0257,62.3226 -56.2608,62.3226 Z " fill="#f0f8ff" fill-opacity="1.00" />				<path d="M-87.643,84.0152 C-82.8369,92.3395 -72.1158,95.2122 -63.7915,90.4062 L-18.504,64.2594 C-10.1796,59.4534 -7.30692,48.7322 -12.113,40.4079 C-16.919,32.0836 -27.6402,29.2108 -35.9645,34.0169 L-81.252,60.1636 C-89.5763,64.9697 -92.4491,75.6908 -87.643,84.0152 Z " fill="#f0f8ff" fill-opacity="1.00" />				<path d="M18.4724,106.29 C23.2785,114.614 33.9997,117.487 42.324,112.681 L87.6115,86.5344 C95.9358,81.7284 98.8085,71.0072 94.0025,62.6829 C89.1964,54.3585 78.4752,51.4858 70.1509,56.2919 L24.8634,82.4386 C16.5391,87.2447 13.6664,97.9658 18.4724,106.29 Z " fill="#f0f8ff" fill-opacity="1.00" />				<path d="M8.31106,75.6718 L-47.8712,75.6718 C-71.1976,75.6718 -89.9724,86.3073 -89.9724,99.5212 C-89.9724,112.735 -71.1976,123.371 -47.8712,123.371 L8.31106,123.371 C31.6374,123.371 50.4122,112.735 50.4122,99.5212 C50.4122,86.3879 31.6374,75.6718 8.31106,75.6718 Z " fill="#f0f8ff" fill-opacity="1.00" />			</g>		</g>	</svg>