<?xml version="1.0" encoding="UTF-8"?>
<!DOCTYPE svg PUBLIC "-//W3C//DTD SVG 1.1//EN" "http://www.w3.org/Graphics/SVG/1.1/DTD/svg11.dtd">
<svg version="1.1" xmlns="http://www.w3.org/2000/svg" xmlns:xlink="http://www.w3.org/1999/xlink" x="0" y="0" width="614.4" height="614.4" viewBox="0, 0, 4096, 4096">
  <g id="Layer_1">
    <path d="M2048,4098.197 C915.708,4098.197 -2.197,3180.292 -2.197,2048 C-2.197,915.708 915.708,-2.197 2048,-2.197 C3180.292,-2.197 4098.197,915.708 4098.197,2048 C4098.197,3180.292 3180.292,4098.197 2048,4098.197 z" fill="#1E90FF"/>
  </g>
  <g id="document">
    <g>
      <path d="M2246.262,2135.77 C2305.822,2375.996 2518.252,2560.631 2766.419,2574.528 C3099.955,2598.352 3379.887,2330.333 3379.887,1994.811 C3379.887,1974.958 3377.903,1951.134 3373.932,1927.31 C3365.99,1873.706 3346.137,1816.131 3320.328,1768.483 L2806.125,853.243 L2287.953,1774.439 C2252.218,1834 2234.35,1901.501 2230.379,1970.987 C2226.408,2022.606 2232.365,2082.166 2246.262,2135.77 z" fill="#F0F8FF"/>
      <path d="M2807.395,1528.584 L3213.745,467.43 C2804.188,607.048 2650.159,264.467 2395.314,569.271 L2807.395,1528.584 z" fill="#F0F8FF"/>
      <path d="M3045.048,1099.652 L3045.048,1192.991 L2578.348,1192.991 L2578.348,1099.652 L3045.048,1099.652 z" fill="#705845"/>
      <path d="M2627.45,2242.005 C2646.37,2230.592 2661.837,2222.484 2673.851,2217.678 C2694.272,2209.871 2715.895,2205.967 2738.719,2205.967 C2763.346,2205.967 2796.907,2212.873 2839.403,2226.688 C2881.898,2240.504 2912.155,2247.41 2930.175,2247.41 C2954.801,2247.41 2978.077,2242.155 2999.999,2231.644 C3013.214,2225.037 3028.23,2214.977 3045.048,2201.462 L3007.658,2140.646 C2992.943,2151.157 2981.981,2158.065 2974.772,2161.369 C2963.061,2166.774 2950.147,2169.478 2936.031,2169.478 C2924.919,2169.478 2901.57,2164.147 2865.98,2153.485 C2830.393,2142.823 2801.788,2137.493 2780.164,2137.493 C2760.944,2137.493 2741.272,2140.571 2721.152,2146.728 C2701.03,2152.884 2680.607,2161.219 2659.885,2171.73 C2698.326,2142.898 2726.557,2113.843 2744.577,2084.561 C2762.595,2055.28 2771.605,2025.623 2771.605,1995.591 C2771.605,1987.182 2770.929,1979.073 2769.577,1971.265 C2768.226,1963.456 2766.05,1952.645 2763.046,1938.83 L2890.532,1938.83 L2890.532,1891.979 L2742.774,1891.979 C2720.851,1849.634 2706.51,1820.203 2699.753,1803.685 C2692.996,1787.167 2689.617,1771.101 2689.617,1755.484 C2689.617,1723.95 2700.428,1697.146 2722.052,1675.072 C2743.675,1652.998 2775.509,1641.962 2817.555,1641.962 C2860.8,1641.962 2893.01,1653.75 2914.183,1677.325 C2935.355,1700.9 2945.942,1735.361 2945.942,1780.71 L3029.281,1780.71 C3028.38,1713.738 3010.736,1661.934 2976.35,1625.294 C2941.963,1588.655 2891.283,1570.335 2824.311,1570.335 C2753.136,1570.335 2698.477,1588.88 2660.336,1625.97 C2622.195,1663.06 2603.125,1705.03 2603.125,1751.88 C2603.125,1765.093 2604.176,1777.482 2606.278,1789.045 C2608.38,1800.606 2610.933,1810.742 2613.937,1819.452 C2617.24,1828.762 2623.921,1843.552 2633.983,1863.825 C2644.043,1884.096 2649.073,1893.482 2649.073,1891.979 L2578.348,1891.979 L2578.348,1938.83 L2677.905,1938.83 C2683.611,1952.945 2687.665,1964.057 2690.068,1972.166 C2693.972,1985.079 2695.924,1996.342 2695.924,2005.952 C2695.924,2039.588 2685.563,2070.746 2664.841,2099.427 C2644.118,2128.108 2616.789,2154.311 2582.853,2178.037 L2627.45,2242.005 z" fill="#1E90FF"/>
    </g>
    <g>
      <path d="M1623.062,2703.149 L996.02,2703.149 C735.679,2703.149 604.866,2887.385 604.866,3116.285 C604.866,3345.19 735.679,3529.426 996.02,3529.426 L1623.062,3529.426 C1883.404,3529.426 2092.948,3345.19 2092.948,3116.285 C2092.948,2888.781 1883.404,2703.149 1623.062,2703.149 z" fill="#F0F8FF"/>
      <path d="M1198.311,2996.754 C1263.36,3109.421 1408.468,3148.302 1521.135,3083.254 L2134.091,2729.364 C2246.76,2664.315 2285.641,2519.207 2220.592,2406.539 C2155.544,2293.872 2010.435,2254.989 1897.767,2320.038 L1284.812,2673.928 C1172.144,2738.977 1133.261,2884.085 1198.311,2996.754 z" fill="#F0F8FF"/>
      <path d="M2634.558,3298.238 C2699.608,3410.901 2844.717,3449.787 2957.384,3384.739 L3570.34,3030.85 C3683.007,2965.802 3721.889,2820.693 3656.841,2708.026 C3591.791,2595.357 3446.682,2556.476 3334.015,2621.525 L2721.059,2975.415 C2608.391,3040.464 2569.51,3185.572 2634.558,3298.238 z" fill="#F0F8FF"/>
      <path d="M2497.027,2883.828 L1736.613,2883.828 C1420.896,2883.828 1166.783,3027.777 1166.783,3206.624 C1166.783,3385.469 1420.896,3529.425 1736.613,3529.425 L2497.027,3529.425 C2812.743,3529.425 3066.856,3385.469 3066.856,3206.624 C3066.856,3028.868 2812.743,2883.828 2497.027,2883.828 z" fill="#F0F8FF"/>
    </g>
  </g>
</svg>
